<?xml version="1.0" encoding="UTF-8"?>
<svg version="1.1" xmlns="http://www.w3.org/2000/svg" width="225" height="225">
<path d="M0 0 C0.639375 -0.01289063 1.27875 -0.02578125 1.9375 -0.0390625 C5.22077192 1.01805157 7.25532971 2.71155124 9 5.625 C9.75791755 9.52937292 9.6796806 13.39321429 9.64355469 17.36010742 C9.6524321 18.54756058 9.66130951 19.73501373 9.67045593 20.95845032 C9.69006997 24.20641493 9.687756 27.4534818 9.67596722 30.70145583 C9.66911041 34.10121297 9.69123347 37.50077542 9.71051025 40.90046692 C9.74279188 47.33659148 9.7506263 53.77249183 9.74893594 60.20868808 C9.74747413 69.66424669 9.78097552 79.11969583 9.81666946 88.57517719 C9.82189425 89.96900748 9.82711659 91.36283778 9.83233643 92.75666809 C9.83624386 93.77710369 9.83624386 93.77710369 9.84023023 94.81815416 C9.8572493 99.52073859 9.86178899 104.22321141 9.86248779 108.92582703 C9.86630686 111.37657678 9.87015071 113.8273265 9.87402344 116.27807617 C9.87192368 117.4038205 9.86982391 118.52956482 9.86766052 119.68942261 C9.87150505 121.22249809 9.87150505 121.22249809 9.87542725 122.7865448 C9.8753857 123.67787707 9.87534416 124.56920935 9.87530136 125.48755169 C9.86211823 127.67787164 9.86211823 127.67787164 11 129.625 C12.65 129.625 14.3 129.625 16 129.625 C17.23321044 127.15857912 17.12470133 125.54536252 17.12457275 122.7865448 C17.12713577 121.76449448 17.12969879 120.74244415 17.13233948 119.68942261 C17.13023972 118.56367828 17.12813995 117.43793396 17.12597656 116.27807617 C17.1278447 115.09587997 17.12971283 113.91368378 17.13163757 112.69566345 C17.13564932 110.12126573 17.13771712 107.54686443 17.13809967 104.97246361 C17.13923915 100.9004906 17.15207138 96.82860843 17.16766357 92.75666809 C17.17023643 92.06964961 17.17280928 91.38263112 17.1754601 90.6747939 C17.1807268 89.26978231 17.18601228 87.8647708 17.19131613 86.45975935 C17.22643347 76.97861142 17.25297837 67.49757578 17.25048828 58.01635742 C17.24889937 51.62280964 17.26494304 45.22957101 17.30119491 38.83612233 C17.3196535 35.45273013 17.3289995 32.06985404 17.31671906 28.68642235 C17.30713199 24.91050043 17.32821738 21.13590906 17.35644531 17.36010742 C17.34624863 16.24043579 17.33605194 15.12076416 17.32554626 13.96716309 C17.43890215 5.52823178 17.43890215 5.52823178 20.41131592 2.43305969 C22.90002331 0.69482846 24.01727692 -0.06013555 27 0 C27.639375 -0.01289063 28.27875 -0.02578125 28.9375 -0.0390625 C32.24104732 1.02457963 34.26722084 2.67774211 36 5.625 C36.76028502 9.70620255 36.67234176 13.75046134 36.63110352 17.89160156 C36.63825882 19.13608566 36.64541412 20.38056976 36.65278625 21.6627655 C36.66678902 25.07053774 36.65837154 28.47679034 36.63869596 31.88443851 C36.62227903 35.45834793 36.63112724 39.03220886 36.63621521 42.60614014 C36.64073515 48.61173977 36.62487865 54.61702788 36.59692383 60.62255859 C36.56493042 67.54873644 36.56486515 74.4743507 36.5821386 81.40056825 C36.59805458 88.0785563 36.59123394 94.75633934 36.57420158 101.43431854 C36.56735966 104.26826236 36.56833409 107.10204043 36.57574654 109.93598175 C36.5848956 113.90447616 36.56076678 117.87240192 36.53344727 121.84082031 C36.53997314 123.00685287 36.54649902 124.17288544 36.55322266 125.37425232 C36.47454438 132.11751299 35.81150999 137.89827561 32 143.625 C29.420073 146.07848886 26.72199427 148.625 23 148.625 C23.06899516 153.66088432 23.15701848 158.69594767 23.26245117 163.73120117 C23.29564169 165.44302238 23.32369189 167.15495148 23.34643555 168.86694336 C23.38009032 171.33233479 23.43240974 173.79674281 23.48828125 176.26171875 C23.49467117 177.02336838 23.5010611 177.78501801 23.50764465 178.56974792 C23.632932 183.12933391 24.38015499 185.90509307 27 189.625 C27.88982328 193.91546576 27.98653314 197.95060889 25.72265625 201.79296875 C23.02111491 204.996508 20.9403877 207.37078669 16.64453125 207.93359375 C11.45157107 208.16996297 7.94745615 208.22979101 3.875 204.75 C0.42166588 201.32971214 -0.1719754 199.10052954 -0.25 194.25 C-0.27578125 193.29351562 -0.3015625 192.33703125 -0.328125 191.3515625 C0 188.625 0 188.625 1.48852539 186.97119141 C3.66987977 183.58517693 3.47917601 180.26460689 3.51171875 176.359375 C3.52966995 175.56597717 3.54762115 174.77257935 3.56611633 173.95513916 C3.62016926 171.42847969 3.65409812 168.90200856 3.6875 166.375 C3.7206776 164.65882799 3.75516767 162.94268081 3.79101562 161.2265625 C3.87589255 157.02617768 3.94272721 152.82584823 4 148.625 C3.40316406 148.50382813 2.80632812 148.38265625 2.19140625 148.2578125 C-2.51694337 146.89818213 -5.26882277 143.94148109 -7.56530762 139.80667114 C-9.80668428 134.39688611 -9.43421032 128.74182999 -9.41992188 122.97607422 C-9.42839142 121.71511932 -9.43686096 120.45416443 -9.44558716 119.15499878 C-9.46771373 115.71297906 -9.47073862 112.27119932 -9.46883965 108.82911825 C-9.46871962 105.95120674 -9.4772962 103.0733455 -9.48561716 100.19544804 C-9.50481647 93.40679422 -9.50774656 86.61826337 -9.50097656 79.82958984 C-9.49432651 72.83168177 -9.5172462 65.83429955 -9.55429029 58.83649814 C-9.5849846 52.81931267 -9.596348 46.80229649 -9.59245348 40.7850343 C-9.59038697 37.19491587 -9.59585041 33.6052075 -9.62034607 30.01516342 C-9.64674384 26.01479939 -9.63288782 22.0155488 -9.61523438 18.01513672 C-9.62849762 16.8285144 -9.64176086 15.64189209 -9.65542603 14.41931152 C-9.56365989 5.49062337 -9.56365989 5.49062337 -6.5904541 2.39212036 C-4.10554862 0.69700171 -2.95863919 -0.05964998 0 0 Z " fill="white" transform="translate(99,8.375)"/>
<path d="M0 0 C5.57486806 1.11497361 8.56236898 5.76461765 11.67578125 10.2421875 C20.78557926 24.95051234 23.90925758 41.910926 19.9296875 58.92578125 C16.97612776 69.30842154 11.30669748 79.73021072 2.8125 86.5625 C0.0625 87.0625 0.0625 87.0625 -2.1875 86.5625 C-2.8475 85.9025 -3.5075 85.2425 -4.1875 84.5625 C-4.1875 78.86070965 -2.46097305 76.44330891 1.19140625 72.484375 C8.63033296 63.66521369 11.30445641 51.22947804 10.75 39.9375 C9.40321211 28.16026969 5.14646 18.73866421 -2.5625 9.8125 C-4.1875 7.5625 -4.1875 7.5625 -4.5625 4.875 C-4.05249672 1.7299798 -3.07243776 0.79005542 0 0 Z " fill="white" transform="translate(177.1875,37.4375)"/>
<path d="M0 0 C2.87109375 0.40234375 2.87109375 0.40234375 4.87109375 2.40234375 C5.35879072 5.61256886 5.17263503 6.97060847 3.296875 9.65625 C2.59949219 10.41808594 1.90210937 11.17992187 1.18359375 11.96484375 C-7.16163322 21.92003486 -10.6121941 34.02184853 -10.00390625 46.90234375 C-8.91227813 57.50493876 -4.77600937 68.9390523 3.03125 76.4921875 C4.87109375 78.40234375 4.87109375 78.40234375 5.30859375 81.52734375 C5.16421875 82.47609375 5.01984375 83.42484375 4.87109375 84.40234375 C1.87109375 86.40234375 1.87109375 86.40234375 -0.609375 86.21875 C-7.11929913 84.10933272 -10.37384939 77.2521945 -13.3737793 71.51000977 C-13.90225464 70.46671509 -13.90225464 70.46671509 -14.44140625 69.40234375 C-14.77889893 68.738396 -15.1163916 68.07444824 -15.46411133 67.39038086 C-21.67122157 54.61048233 -22.41194129 38.76790317 -18.44140625 25.15234375 C-15.50145837 17.19297266 -9.26465449 1.1913351 0 0 Z " fill="white" transform="translate(47.12890625,35.59765625)"/>
<path d="M0 0 C5.59131909 2.46675842 8.07518719 6.88758747 11 12 C11.41894531 12.71929687 11.83789062 13.43859375 12.26953125 14.1796875 C16.49787812 22.81567511 16.40471965 33.8050285 14.3046875 43.06640625 C11.71933714 50.00774607 7.4818805 58.07507433 1 62 C-1.39263407 61.33228817 -3.22097385 60.77902615 -5 59 C-5.29487863 56.12855888 -5.30594962 54.5049654 -3.79296875 52.0078125 C-3.26316406 51.38648438 -2.73335937 50.76515625 -2.1875 50.125 C3.43487757 43.01746609 5.52749638 35.71984524 4.8203125 26.7109375 C3.61000874 19.72081579 0.01542067 13.01542067 -5 8 C-5.4375 5.5625 -5.4375 5.5625 -5 3 C-2.5 1.1875 -2.5 1.1875 0 0 Z " fill="white" transform="translate(165,50)"/>
<path d="M0 0 C2.4375 0.8125 2.4375 0.8125 4.4375 2.8125 C4.4375 7.0591273 3.17378965 9.33657199 0.5625 12.5 C-4.30704473 18.67200128 -5.92601012 25.57605558 -5.5625 33.375 C-4.65621482 40.3364653 -1.75714158 46.27133607 2.8125 51.5625 C4.4375 53.8125 4.4375 53.8125 4.1875 57.125 C3.94 58.011875 3.6925 58.89875 3.4375 59.8125 C0.75 60.625 0.75 60.625 -2.5625 60.8125 C-9.40599949 55.63814673 -14.6668963 46.18500923 -15.86523438 37.65844727 C-15.9991416 35.42974139 -16.03029161 33.23244377 -16 31 C-15.99242676 30.21318848 -15.98485352 29.42637695 -15.97705078 28.61572266 C-15.68833343 18.3546657 -12.35610596 10.4938038 -5.5625 2.8125 C-5.05976562 2.24144531 -4.55703125 1.67039063 -4.0390625 1.08203125 C-2.5625 -0.1875 -2.5625 -0.1875 0 0 Z " fill="white" transform="translate(60.5625,48.1875)"/>
<path d="M0 0 C4.37879601 2.06060989 7.37393388 6.57174835 9.125 11 C10.00757431 18.54368777 10.13516799 25.18743014 5.51171875 31.44921875 C5.05410156 31.96097656 4.59648437 32.47273438 4.125 33 C3.62742188 33.56589844 3.12984375 34.13179687 2.6171875 34.71484375 C1.125 36 1.125 36 -1.4375 35.875 C-3.875 35 -3.875 35 -5.875 32 C-5.64846967 29.05510572 -5.1913062 27.40856217 -3.375 25.0625 C-1.3581154 22.28928367 -1.00931732 20.42509162 -0.875 17 C-2.19947807 13.27884732 -3.68602914 10.2834563 -5.875 7 C-5.6875 4.4375 -5.6875 4.4375 -4.875 2 C-1.875 0 -1.875 0 0 0 Z " fill="white" transform="translate(152.875,63)"/>
<path d="M0 0 C2.4375 0.5 2.4375 0.5 4.3125 1.6875 C5.4375 3.5 5.4375 3.5 5.375 5.6875 C4.54037167 8.191385 3.56843674 9.99430721 2.25 12.25 C0.08723145 16.38747027 0.39379709 19.11733432 1.6484375 23.53125 C2.39978809 25.65230568 2.39978809 25.65230568 4.125 27.75 C5.4375 29.5 5.4375 29.5 5.1875 32.1875 C4.4375 34.5 4.4375 34.5 3.4375 35.5 C0.6875 35.9375 0.6875 35.9375 -2.5625 35.5 C-6.83361425 31.32595653 -9.27865618 27.44534042 -9.86328125 21.37890625 C-9.90253014 10.27147162 -9.90253014 10.27147162 -6.5625 5.5 C-5.94375 4.55125 -5.325 3.6025 -4.6875 2.625 C-2.5625 0.5 -2.5625 0.5 0 0 Z " fill="white" transform="translate(72.5625,60.5)"/>
</svg>
