<?xml version="1.0" encoding="UTF-8"?>
<svg version="1.1" xmlns="http://www.w3.org/2000/svg" width="200" height="200"  >
<path d="M0 0 C1.06992188 0.474375 2.13984375 0.94875 3.2421875 1.4375 C19.63439059 9.46003704 30.82260053 22.83284493 37 40 C42.05634913 57.41824347 40.04005104 76.59366026 31.46020508 92.41772461 C23.00755497 107.01844072 9.34006574 117.83721636 -6.95874023 122.56860352 C-24.81201417 127.01756731 -43.4892515 124.52368011 -59.3125 115.36328125 C-73.78022303 106.44177041 -83.12880364 92.52365981 -88.11328125 76.3984375 C-91.21559644 63.30712927 -90.47677869 47.30030624 -85 35 C-84.63777344 34.12730469 -84.27554688 33.25460938 -83.90234375 32.35546875 C-76.9799626 17.07929883 -64.35962165 6.03063924 -48.99609375 -0.22265625 C-33.76618437 -5.88063856 -15.0295325 -6.88000398 0 0 Z M-59 26.1875 C-67.74433388 35.54999003 -72.49040735 47.21385702 -73 60 C-72.64619356 63.39342704 -72.64619356 63.39342704 -72 66 C-70.30881475 63.46322212 -69.17313433 61.19664045 -67.9375 58.4375 C-62.35425436 47.22188926 -53.21108174 39.28622407 -41.6875 34.625 C-28.36604875 30.5928366 -13.34848742 31.59947511 -1 38 C8.09322627 43.60839704 14.5179375 51.14991872 18.95703125 60.80078125 C20.03247338 63.20542616 20.03247338 63.20542616 22 66 C22.7495265 50.75962787 19.93247286 39.66616795 10.10546875 27.69140625 C1.42378171 18.13993981 -9.56873644 13.25511487 -22.34375 12.09375 C-36.53972486 11.72975064 -48.65747179 16.48962802 -59 26.1875 Z M-50.6015625 60.86328125 C-57.10313856 70.79725362 -57.17305893 80.46273791 -57 92 C-55.45553499 89.68330248 -54.41830998 87.75183254 -53.3125 85.25 C-49.58332502 77.76412846 -43.75651075 72.97466186 -36 70 C-27.79498859 67.38212698 -18.00101417 68.06017761 -10.25 71.66796875 C-2.12644549 76.47722585 3.38427595 82.84496583 6 92 C6.33 92 6.66 92 7 92 C7.41874812 78.66985151 6.53561863 67.56739038 -2.59765625 57.18359375 C-9.11532524 51.03572158 -16.53770859 48.77258775 -25.375 48.375 C-35.72853694 48.68874354 -44.1840335 52.64571363 -50.6015625 60.86328125 Z M-38.3125 91.625 C-40.52685095 96.05370189 -40.80648515 100.10407441 -41 105 C-35.53394387 106.8317103 -30.74576504 107.30784327 -25 107.25 C-24.23171875 107.25773437 -23.4634375 107.26546875 -22.671875 107.2734375 C-17.74594371 107.25668263 -13.67204694 106.56563275 -9 105 C-9.2513118 98.64181139 -9.62851982 93.96222075 -14 89 C-18.35061345 85.06373068 -21.91777006 84.36116081 -27.6015625 84.6171875 C-32.52491236 85.40299904 -35.12194486 88.00328876 -38.3125 91.625 Z " fill="white" transform="translate(125,40)"/>
</svg>
